# xmcd CD database file
#
# Track frame offsets:
#	150
#	19620
#	40227
#	61142
#	89267
#	116610
#
# Disc length: 1935 seconds
#
# Revision: 0
# Processed by: cddbd v1.5.1PL0 Copyright (c) Steve Scherf et al.
# Submitted via: CDex 1.51
#
DISCID=41078d06
DTITLE=Bats in the Belfry - Bats in the Belfry
DYEAR=1900
DGENRE=Jazz
TTITLE0=Longing for Home
TTITLE1=Louis
TTITLE2=Figure on A Beach
TTITLE3=Ask the Ants
TTITLE4=Maiden Thailand
TTITLE5=Autumn Lake
EXTD=
EXTT0=
EXTT1=
EXTT2=
EXTT3=
EXTT4=
EXTT5=
PLAYORDER=
